:SAMPLES-PER-SECOND 30
:FULLY-SPECIFIED
:DEGREES
435
root  70.2746 34.4372 14.0864 16.1172 -75.2918 -6.88031
RightUpLeg  -45.1677 -23.8099 -11.1448
RightLeg  66.2148 -4.79978 -12.4486
RightFoot  -8.45827 -0.190977 5.12275
RightToes  0.000482159 0.542163 -0.142577
Spine  51.1927 4.23292 -13.5573
Spine1  -22.2825 -2.19317 8.31746
HEad  -67.4243 -16.982 18.9181
LeftShoulder1  9.71966 -15.9934 -43.3587
LeftArm  -23.9479 0.879472 -18.5083
LeftForeArm  69.2219 -69.2054 -21.6714
LeftHand  -0.25398 0.0180481 5.50724
RightShoulder  7.10593 11.301 41.7495
RightArm  -3.4787 -17.5618 26.6779
RightForeArm  9.43055 58.8631 18.1063
RightHand  -5.86113 14.6033 -33.5286
LeftUpLeg  -29.2464 15.1893 16.2587
LeftLeg  53.0873 3.18358 5.02165
LeftFoot  -25.5441 -2.87703 -24.0024
LeftToes  1.06246e-005 4.65855e-005 -8.18502e-006
436
root  69.0542 34.755 14.0557 17.9576 -77.4122 -9.01794
RightUpLeg  -47.9161 -27.0227 -5.49401
RightLeg  64.7502 -4.87959 -11.7882
RightFoot  -10.3512 -0.112932 4.86508
RightToes  0.000482159 0.542163 -0.142577
Spine  48.9415 3.73167 -14.9333
Spine1  -22.0811 -3.0062 11.2833
HEad  -64.9735 -14.8071 16.7361
LeftShoulder1  9.92992 -16.0625 -44.185
LeftArm  -19.792 -2.6249 -22.4633
LeftForeArm  68.2859 -68.2734 -20.5928
LeftHand  -0.25398 0.0180481 5.50724
RightShoulder  6.8873 11.0457 41.1279
RightArm  -1.72714 -21.0262 24.6395
RightForeArm  9.13569 59.9914 19.1099
RightHand  -5.81527 14.3338 -33.7082
LeftUpLeg  -24.1014 16.6215 17.5171
LeftLeg  49.6306 4.02644 5.50372
LeftFoot  -25.6524 -3.02108 -24.9199
LeftToes  1.06246e-005 4.65855e-005 -8.18502e-006
437
root  67.5641 35.1354 13.8938 17.2758 -79.5824 -8.66608
RightUpLeg  -48.8886 -28.6359 -1.78897
RightLeg  62.3009 -5.25881 -11.2985
RightFoot  -12.8095 -0.0192525 5.0479
RightToes  0.000482159 0.542163 -0.142577
Spine  46.2147 3.11446 -16.5523
Spine1  -21.5058 -3.894 14.2808
HEad  -61.9304 -11.7744 13.7656
LeftShoulder1  10.001 -16.0529 -44.5402
LeftArm  -15.4318 -5.57689 -27.3174
LeftForeArm  65.8386 -65.8963 -18.1875
LeftHand  -0.25398 0.0180481 5.50724
RightShoulder  6.43529 10.5945 39.5282
RightArm  -0.896869 -25.4782 23.9202
RightForeArm  11.9148 63.1475 21.8598
RightHand  -5.75162 14.0627 -33.7972
LeftUpLeg  -17.5895 18.4521 18.5243
LeftLeg  44.2544 4.57821 5.19692
LeftFoot  -24.8806 -2.86225 -24.9806
LeftToes  1.06246e-005 4.65855e-005 -8.18502e-006
438
root  65.8182 35.5399 13.6419 16.4196 -82.5218 -8.23511
RightUpLeg  -47.8792 -28.0325 0.215513
RightLeg  58.5801 -5.86758 -10.7429
RightFoot  -15.8509 0.116086 5.70901
RightToes  0.000482159 0.542163 -0.142577
Spine  42.8582 1.91043 -17.1393
Spine1  -20.9418 -4.72771 15.5529
HEad  -57.6538 -8.18985 10.5069
LeftShoulder1  9.78642 -15.6742 -44.4414
LeftArm  -12.0719 -6.58615 -31.837
LeftForeArm  64.8681 -63.6354 -16.1833
LeftHand  -0.25398 0.0180481 5.50724
RightShoulder  5.9294 10.0729 37.6434
RightArm  -0.71766 -30.4013 24.5946
RightForeArm  16.4009 66.417 25.3496
RightHand  -5.45597 13.517 -33.0339
LeftUpLeg  -9.64846 20.4413 20.0203
LeftLeg  37.6271 4.60098 4.16784
LeftFoot  -23.0559 -2.70125 -27.2941
LeftToes  1.06246e-005 4.65855e-005 -8.18502e-006
439
root  63.8587 35.8721 13.3043 33.0676 -86.1151 -25.2664
RightUpLeg  -45.2635 -25.4682 1.7226
RightLeg  53.7375 -5.95535 -9.0655
RightFoot  -17.5995 0.160948 5.12188
RightToes  0.000482159 0.542163 -0.142577
Spine  38.8431 0.226951 -16.1795
Spine1  -20.31 -5.33633 15.476
HEad  -51.5508 -4.4025 6.86772
LeftShoulder1  9.47478 -14.9776 -44.6632
LeftArm  -11.0047 -4.81632 -34.6898
LeftForeArm  65.5671 -63.0111 -15.6306
LeftHand  -0.25398 0.0180481 5.50724
RightShoulder  5.56386 9.77509 35.9242
RightArm  -0.859448 -34.9101 25.8624
RightForeArm  20.6781 68.756 28.5257
RightHand  -5.00834 12.7283 -31.7385
LeftUpLeg  -1.61056 21.2475 22.0066
LeftLeg  31.7622 6.63975 4.70581
LeftFoot  -18.8043 -1.98063 -31.6943
LeftToes  1.06246e-005 4.65855e-005 -8.18502e-006
440
root  61.7816 36.0837 12.8258 55.8917 -89.69 -48.3727
RightUpLeg  -41.6976 -21.8918 2.58661
RightLeg  49.8372 -5.78765 -7.64236
RightFoot  -17.776 0.0344051 2.74591
RightToes  0.000482159 0.542163 -0.142577
Spine  34.6612 -1.16545 -15.068
Spine1  -18.9358 -5.81884 15.4954
HEad  -45.2723 -1.16052 2.84077
LeftShoulder1  9.26799 -14.2436 -45.5293
LeftArm  -12.1671 -1.24678 -35.3079
LeftForeArm  65.643 -63.6955 -16.1791
LeftHand  -0.25398 0.0180481 5.50724
RightShoulder  5.35982 9.71261 34.5998
RightArm  -1.45467 -38.0704 26.9751
RightForeArm  24.1252 70.5139 31.5631
RightHand  -4.75216 12.2013 -31.0635
LeftUpLeg  3.5718 19.2617 22.5906
LeftLeg  30.1995 12.4113 8.11533
LeftFoot  -10.7517 0.164115 -31.4963
LeftToes  1.06246e-005 4.65855e-005 -8.18502e-006
441
root  59.7533 36.1775 12.2267 171.365 -86.5067 -164.543
RightUpLeg  -37.5733 -17.7458 1.99415
RightLeg  49.0604 -6.70086 -8.57311
RightFoot  -18.4432 -0.0974041 0.47091
RightToes  0.000482159 0.542163 -0.142577
Spine  31.3485 -2.01106 -14.2444
Spine1  -16.6447 -6.24614 15.6135
HEad  -41.0836 1.5978 -0.68602
LeftShoulder1  9.10593 -13.6629 -46.2677
LeftArm  -14.2846 2.25268 -34.2443
LeftForeArm  63.9254 -63.7739 -16.3949
LeftHand  -0.25398 0.0180481 5.50724
RightShoulder  5.21956 9.55279 34.0287
RightArm  -2.84353 -39.2118 27.9664
RightForeArm  27.2812 72.1492 35.1476
RightHand  -4.80254 12.2176 -31.3404
LeftUpLeg  3.88014 14.8594 20.749
LeftLeg  35.8225 16.2498 12.586
LeftFoot  -0.980331 2.01704 -22.4085
LeftToes  1.06246e-005 4.65855e-005 -8.18502e-006
442
root  57.9349 36.0735 11.6864 -177.773 -84.2915 -176.901
RightUpLeg  -33.3003 -13.2634 0.982688
RightLeg  51.209 -8.3765 -11.3927
RightFoot  -20.9154 -0.0620202 0.865797
RightToes  0.000482159 0.542163 -0.142577
Spine  29.8051 -2.79242 -11.6088
Spine1  -13.9939 -6.37376 14.7237
HEad  -39.5291 3.60338 -3.14615
LeftShoulder1  8.91131 -13.2456 -46.4113
LeftArm  -16.251 4.85121 -32.2685
LeftForeArm  61.0335 -61.668 -15.0321
LeftHand  -0.25398 0.0180481 5.50724
RightShoulder  5.0755 9.13457 34.2111
RightArm  -4.93883 -38.0096 29.3055
RightForeArm  29.504 73.2286 38.0564
RightHand  -4.92959 12.4079 -31.7973
LeftUpLeg  0.177648 11.0917 18.212
LeftLeg  47.1682 12.4606 14.1863
LeftFoot  4.88694 1.59283 -10.9649
LeftToes  1.06246e-005 4.65855e-005 -8.18502e-006
